<?xml version="1.0" encoding="utf-8"?>
<!-- Generator: Adobe Illustrator 26.2.1, SVG Export Plug-In . SVG Version: 6.00 Build 0)  -->
<svg version="1.1" id="Layer_1" xmlns="http://www.w3.org/2000/svg" xmlns:xlink="http://www.w3.org/1999/xlink" x="0px" y="0px"
	 viewBox="0 0 1000 1000" style="enable-background:new 0 0 1000 1000;" xml:space="preserve">
<style type="text/css">
	.st0{fill:#121112;}
</style>
<g>
	<g>
		<path class="st0" d="M480.87,743.76c-114.34,0.01-216.58-83.91-237.84-195.19c-23.74-124.28,44.31-239.48,165.47-280.15
			c34.13-11.45,45.16-20.92,43.16-54.37c-1.31-21.74-13.47-33.93-34.23-34.32c-19.25-0.36-38.5-0.45-57.75-0.52
			c-18.62-0.07-37.25-0.14-55.86-0.47c-14.48-0.26-23.9-2.99-28.81-8.35c-2.85-3.11-6.5-9.08-5.4-25.08
			c1.06-15.16,7.98-22.58,21.17-22.68c29.13-0.23,58.27-0.3,87.4-0.3l107.95,0.09v-1.42l98.61-0.08c24.16,0,48.32,0.05,72.49,0.18
			c16.35,0.09,26.74,3.13,31.75,9.29c4.2,5.15,5.14,13.14,2.88,24.44c-1.67,8.39-13.43,20.81-20.28,21.44
			c-26.07,2.38-52.82,2.42-78.7,2.46c-11.26,0.03-21.47,0.05-31.67,0.21l-2.99,0.04c-19.5,0.23-41.61,0.5-46.7,29.36
			c-5.47,30.98,4.73,47.2,36.42,57.85c58.06,19.52,99.87,48.89,127.8,89.81c0.85,1.25,1.75,2.5,2.66,3.76
			c6.93,9.59,13.05,18.06,9.33,30.49c-6.24,6.77-12.18,9.94-18.63,9.94c-6.25,0-13.68-3.05-22.09-9.07
			c-3.61-2.59-7.55-5.51-11.63-8.52c-5.06-3.75-10.11-7.49-15.02-10.98c-5.82-4.13-11.57-8.41-17.32-12.7
			c-15.39-11.44-31.24-23.22-48.39-32.21c-6.11-3.2-11.98-4.82-17.44-4.82c-11.44,0-25.13,8.38-26.05,32.01
			c-0.89,23.25-0.67,46.8-0.45,69.57l0.11,11.78c0.2,23.71,13.61,36.86,37.76,37.02c41.17,0.27,82.34,0.34,123.51,0.42l10.43,0.02
			c18.48,0.03,32.04,1.45,38.14,8.24c6.09,6.79,6.07,20.4,4.14,38.73C713,631.86,630.75,720.53,520.1,740.3
			C507.25,742.6,494.05,743.76,480.87,743.76L480.87,743.76z M425.09,322c-8.08,0-17.75,3.11-29.55,9.51
			c-67.8,36.76-102.06,93.8-101.81,169.54c0.25,75.48,34.93,132.26,103.11,168.76c11.01,5.89,20.16,8.76,27.99,8.77
			c12.28,0,26.94-7.25,27.33-41.75c0.36-31.42,0.29-63.38,0.21-94.29c-0.04-14.1-0.07-28.2-0.06-42.29l0.06-40.93
			c0.07-31.43,0.14-62.87-0.16-94.29C451.93,336.47,442.81,322,425.09,322z M550.13,528.17c-12.9,0.02-22.84,3.44-29.55,10.18
			c-6.71,6.75-10.09,16.67-10.05,29.52c0.02,7.05,0,14.09-0.02,21.15c-0.06,19.23-0.11,39.11,0.7,58.74
			c0.95,22.66,14.22,30.73,26.31,30.73c4.37,0,9.08-0.97,13.99-2.87c53.01-20.61,88.7-57.55,106.09-109.8
			c3.95-11.87,1.28-19.8-1.66-24.37c-3.07-4.77-9.54-10.76-22.92-12.19c-5.19-0.56-10.8-0.82-17.64-0.82
			c-4.59,0-9.19,0.11-13.8,0.23c-3.11,0.08-6.21,0.16-9.3,0.2l-8.65-0.71l-17.29-0.01L550.13,528.17z"/>
		<path class="st0" d="M448.45,879.71c-46.98,0-93.96-0.07-140.94-0.25c-23.85-0.08-34.91-2.19-37.5-21.15
			c-2.37-17.39,1.38-24.04,4.4-27.54c5.16-5.95,14.69-8.78,29.98-8.89c24.42-0.18,48.83-0.23,73.25-0.23l103.77,0.1l103.91-0.09
			c23.93,0,47.85,0.04,71.78,0.17c16.41,0.09,26.83,3.12,31.86,9.26c4.18,5.12,5.14,13.07,2.92,24.3
			c-1.66,8.42-13.21,20.72-20.27,21.58c-19.42,2.37-38.93,2.7-57.13,2.7l-33.97-0.11C536.48,879.65,492.47,879.71,448.45,879.71z"/>
	</g>
	<g>
		<g>
			<path class="st0" d="M752.08,202.66c1.99,2.46,5.49,5.48,5.49,6.77c-2.2,3.14-4.61,3.14-7.15,0.31
				c-1.58-1.76-2.99-3.69-4.72-5.26c-1.01-0.92-2.52-1.28-4.51-2.24c-0.55,2.43-1.07,4.08-1.26,5.78c-0.23,2.01-0.91,3.48-3.09,3.85
				c-2.42-0.5-2.98-2.24-2.98-4.37c0.01-6.56,0.01-13.12,0-19.68c0-2.18,0.71-4.25,3.03-4.29c4.7-0.08,9.56-0.32,14.08,0.72
				c6.54,1.51,8.55,9.46,4.22,14.68C754.23,200.09,753.27,201.24,752.08,202.66z M741.52,189.56c-1.92,3.61-1.55,5.84,1.22,6.67
				c1.63,0.49,3.54,0.32,5.28,0.1c1.86-0.23,3.28-1.69,2.89-3.4c-0.3-1.29-1.8-2.86-3.08-3.23
				C745.92,189.16,743.74,189.56,741.52,189.56z"/>
			<g>
				<path class="st0" d="M767.36,198.18c-0.72,13.42-9.98,24.78-24.75,22.38c-10.38-1.69-16.84-11.57-18.4-21.14
					c-2.33-14.29,10.47-26.94,24.59-24.64c11.48,1.87,17.97,13.32,18.54,23.92c0.12,2.29,7.8,0.76,7.65-2.05
					c-1.96-36.31-56.7-33.17-58.57,1.54c-1.97,36.56,56.68,33.93,58.56-1.03C775.15,194.18,767.49,195.78,767.36,198.18z"/>
			</g>
		</g>
	</g>
</g>
</svg>
